<svg width="25" height="24" viewBox="0 0 25 24" fill="none" xmlns="http://www.w3.org/2000/svg">
<path d="M8.76817 11.7222C8.72809 12.4836 8.77417 13.2942 8.09386 13.8044C7.77723 14.0419 7.59088 14.4146 7.59088 14.8104C7.59088 15.3548 8.01732 15.818 8.5727 15.818H16.4272C16.9826 15.818 17.4091 15.3548 17.4091 14.8104C17.4091 14.4146 17.2227 14.0419 16.9061 13.8044C16.2258 13.2942 16.2718 12.4836 16.2318 11.7222C16.1273 9.7374 14.4875 8.18164 12.5 8.18164C10.5124 8.18164 8.87263 9.7374 8.76817 11.7222Z" stroke="black" stroke-width="1.3" stroke-linecap="round" stroke-linejoin="round"/>
<path d="M11.6818 7.15905C11.6818 7.61092 12.0482 8.18177 12.5 8.18177C12.9519 8.18177 13.3182 7.61092 13.3182 7.15905C13.3182 6.70718 12.9519 6.54541 12.5 6.54541C12.0482 6.54541 11.6818 6.70718 11.6818 7.15905Z" stroke="black" stroke-width="1.3"/>
<path d="M14.1364 15.8184C14.1364 16.7221 13.4038 17.4547 12.5 17.4547C11.5962 17.4547 10.8636 16.7221 10.8636 15.8184" stroke="black" stroke-width="1.3" stroke-linecap="round" stroke-linejoin="round"/>
</svg>
