<svg width="25" height="24" viewBox="0 0 25 24" fill="none" xmlns="http://www.w3.org/2000/svg">
<path d="M17.3 12.2998C17.3 11.902 17.458 11.5204 17.7393 11.2391C18.0206 10.9578 18.4022 10.7998 18.8 10.7998C19.1978 10.7998 19.5793 10.9578 19.8607 11.2391C20.142 11.5204 20.3 11.902 20.3 12.2998C20.3 12.6976 20.142 13.0792 19.8607 13.3605C19.5793 13.6418 19.1978 13.7998 18.8 13.7998C18.4022 13.7998 18.0206 13.6418 17.7393 13.3605C17.458 13.0792 17.3 12.6976 17.3 12.2998ZM11.3 12.2998C11.3 11.902 11.458 11.5204 11.7393 11.2391C12.0206 10.9578 12.4022 10.7998 12.8 10.7998C13.1978 10.7998 13.5793 10.9578 13.8606 11.2391C14.142 11.5204 14.3 11.902 14.3 12.2998C14.3 12.6976 14.142 13.0792 13.8606 13.3605C13.5793 13.6418 13.1978 13.7998 12.8 13.7998C12.4022 13.7998 12.0206 13.6418 11.7393 13.3605C11.458 13.0792 11.3 12.6976 11.3 12.2998ZM5.29999 12.2998C5.29999 11.902 5.45802 11.5204 5.73933 11.2391C6.02063 10.9578 6.40216 10.7998 6.79999 10.7998C7.19781 10.7998 7.57934 10.9578 7.86065 11.2391C8.14195 11.5204 8.29999 11.902 8.29999 12.2998C8.29999 12.6976 8.14195 13.0792 7.86065 13.3605C7.57934 13.6418 7.19781 13.7998 6.79999 13.7998C6.40216 13.7998 6.02063 13.6418 5.73933 13.3605C5.45802 13.0792 5.29999 12.6976 5.29999 12.2998Z" fill="black"/>
</svg>
