<svg width="16" height="16" viewBox="0 0 16 16" fill="none" xmlns="http://www.w3.org/2000/svg">
<path d="M1 3.91553C1 2.54096 1 1.85367 1.42778 1.42761C1.85322 1 2.54078 1 3.91667 1C5.29178 1 5.97933 1 6.40556 1.42761C6.83333 1.85367 6.83333 2.54096 6.83333 3.91553C6.83333 5.29011 6.83333 5.9774 6.40556 6.40345C5.97933 6.83107 5.29178 6.83107 3.91667 6.83107C2.54156 6.83107 1.854 6.83107 1.42778 6.40345C1 5.97817 1 5.29089 1 3.91553ZM1 12.0845C1 10.7099 1 10.0226 1.42778 9.59655C1.854 9.16893 2.54156 9.16893 3.91667 9.16893C5.29178 9.16893 5.97933 9.16893 6.40556 9.59655C6.83333 10.0226 6.83333 10.7099 6.83333 12.0845C6.83333 13.459 6.83333 14.1463 6.40556 14.5724C5.97933 15 5.29178 15 3.91667 15C2.54156 15 1.854 15 1.42778 14.5724C1 14.1471 1 13.459 1 12.0845ZM9.16667 3.91553C9.16667 2.54096 9.16667 1.85367 9.59444 1.42761C10.0207 1 10.7082 1 12.0833 1C13.4584 1 14.146 1 14.5722 1.42761C15 1.85367 15 2.54096 15 3.91553C15 5.29011 15 5.9774 14.5722 6.40345C14.146 6.83107 13.4584 6.83107 12.0833 6.83107C10.7082 6.83107 10.0207 6.83107 9.59444 6.40345C9.16667 5.9774 9.16667 5.29011 9.16667 3.91553ZM9.16667 12.0845C9.16667 10.7099 9.16667 10.0226 9.59444 9.59655C10.0207 9.16893 10.7082 9.16893 12.0833 9.16893C13.4584 9.16893 14.146 9.16893 14.5722 9.59655C15 10.0226 15 10.7099 15 12.0845C15 13.459 15 14.1463 14.5722 14.5724C14.146 15 13.4584 15 12.0833 15C10.7082 15 10.0207 15 9.59444 14.5724C9.16667 14.1463 9.16667 13.459 9.16667 12.0845Z" stroke="currentColor" stroke-width="1.5" stroke-linecap="round" stroke-linejoin="round"/>
</svg>
