<svg
  width="24"
  height="24"
  viewBox="0 0 24 24"
  fill="none"
  xmlns="http://www.w3.org/2000/svg"
  stroke="currentColor"
>
  <g clip-path="url(#clip0_197_1753)">
    <path
      d="M11.8732 22.6319L6.73033 23.0776L7.17604 17.9347L17.8732 7.30615C18.0328 7.14288 18.2235 7.01314 18.434 6.92457C18.6445 6.83599 18.8705 6.79037 19.0989 6.79037C19.3273 6.79037 19.5533 6.83599 19.7638 6.92457C19.9743 7.01314 20.165 7.14288 20.3246 7.30615L22.5018 9.50044C22.6624 9.65981 22.79 9.84941 22.877 10.0583C22.964 10.2672 23.0088 10.4913 23.0088 10.7176C23.0088 10.9439 22.964 11.168 22.877 11.3769C22.79 11.5858 22.6624 11.7754 22.5018 11.9347L11.8732 22.6319ZM1.44347 6.80901C0.841759 6.70444 0.841759 5.84044 1.44347 5.73587C2.50851 5.54958 3.4941 5.05079 4.27494 4.30292C5.05577 3.55506 5.59658 2.59189 5.82862 1.53587L5.86462 1.36958C5.9949 0.776441 6.84176 0.771298 6.9789 1.36615L7.02176 1.55815C7.26079 2.61017 7.80565 3.56798 8.58777 4.31105C9.36989 5.05412 10.3543 5.54926 11.4172 5.73415C12.0223 5.83701 12.0223 6.70615 11.4172 6.81244C10.3542 6.9969 9.36959 7.49165 8.58716 8.23442C7.80474 8.97719 7.25949 9.93479 7.02004 10.9867L6.97547 11.1804C6.84004 11.7736 5.99319 11.7702 5.8629 11.1753L5.82862 11.009C5.59635 9.95253 5.05503 8.98902 4.27354 8.24111C3.49204 7.49319 2.50571 6.99468 1.44004 6.80901H1.44347Z"
      stroke-width="1.5"
      stroke-linecap="round"
      stroke-linejoin="round"
    />
  </g>
  <defs>
    <clipPath id="clip0_197_1753">
      <rect width="24" height="24" fill="white" />
    </clipPath>
  </defs>
</svg>