<svg width="24" height="25" viewBox="0 0 24 25" fill="currentColor" xmlns="http://www.w3.org/2000/svg">
<path d="M17.5707 1.19153C17.2905 0.909947 16.91 0.751129 16.5128 0.750006C16.1156 0.748883 15.7341 0.905545 15.4524 1.18554C15.3038 1.33702 15.1889 1.51822 15.1154 1.71725C13.869 4.31738 12.4968 5.7837 10.765 6.64942C8.82204 7.60799 6.59143 8.2745 2.99611 8.2745C2.70037 8.2759 2.41157 8.36426 2.1657 8.52859C1.91983 8.69291 1.72776 8.92593 1.6134 9.19862C1.50019 9.47241 1.47065 9.7736 1.52851 10.0642C1.58637 10.3547 1.72903 10.6216 1.93848 10.8312L6.79667 15.6885L0 24.75L9.06322 17.9546L13.9199 22.8104C14.059 22.9506 14.2252 23.0612 14.4083 23.1354C14.591 23.2118 14.7858 23.2522 14.9805 23.2522C15.1753 23.2522 15.37 23.2118 15.5528 23.1354C15.8267 23.023 16.0611 22.8317 16.2259 22.5858C16.3908 22.3399 16.4787 22.0505 16.4786 21.7545C16.4786 18.1598 17.1437 15.9296 18.101 14.017C18.9654 12.2855 20.4319 10.9136 23.0341 9.66743C23.233 9.59455 23.4139 9.4796 23.5644 9.33043C23.8444 9.04876 24.0011 8.66742 24 8.27026C23.9989 7.87311 23.84 7.49266 23.5584 7.21258L17.5707 1.19153Z" fill="currentColor"/>
</svg>
