<svg width="24" height="25" viewBox="0 0 24 25" fill="currentColor" xmlns="http://www.w3.org/2000/svg">
<path d="M23.1758 7.22908L17.5383 1.55553C16.478 0.488568 14.6294 0.477278 13.5479 1.54707C13.2715 1.82369 13.0543 2.16241 12.9585 2.43479C12.0377 4.35702 11.0492 5.56089 9.78018 6.28349L9.4742 6.43168C8.10926 7.11617 6.25221 7.81337 2.82012 7.81337C2.44505 7.81337 2.08548 7.88676 1.74002 8.02789C1.0507 8.31789 0.502786 8.8673 0.214329 9.55778C-0.0663306 10.2477 -0.0663306 11.0201 0.214329 11.7101C0.360975 12.0615 0.566844 12.3748 0.827705 12.6288L5.38925 17.1945L0 24.7493L7.54664 19.3552L12.0969 23.9096C12.3592 24.1763 12.6694 24.388 13.0219 24.532C13.3636 24.6759 13.7306 24.75 14.1013 24.75C14.472 24.75 14.839 24.6759 15.1807 24.532C15.5232 24.393 15.8343 24.1868 16.0959 23.9255C16.3574 23.6642 16.5641 23.3531 16.7036 23.0106C16.8488 22.669 16.9221 22.295 16.9221 21.9267C16.9221 18.4887 17.6187 16.6314 18.3012 15.2638C19.0006 13.8637 20.2316 12.7968 22.1845 11.8568C22.5666 11.7101 22.9036 11.4955 23.187 11.2119C23.7099 10.6805 24.0021 9.96398 24 9.21815C23.9979 8.47231 23.7017 7.75747 23.1758 7.22908ZM15.7758 14.0049C14.6209 16.3237 14.1006 18.7611 14.0907 21.914L2.82012 10.636C5.83624 10.636 8.19809 10.1632 10.4288 9.10615L10.7602 8.95796C12.7328 7.97144 14.2402 6.28631 15.5375 3.54692L21.0705 9.26422C18.4436 10.5245 16.7614 12.0304 15.7758 14.0049Z" fill="currentColor"/>
</svg>
