<svg width="25" height="24" viewBox="0 0 25 24" fill="none" xmlns="http://www.w3.org/2000/svg">
<path d="M12.5 5.31985H6.59501C6.12223 5.31985 5.6541 5.4131 5.21741 5.59426C4.78072 5.77543 4.38406 6.04095 4.05013 6.37563C3.7162 6.7103 3.45156 7.10755 3.27136 7.54464C3.09117 7.98173 2.99896 8.45007 3.00001 8.92285V15.0848C3.00001 16.0383 3.37877 16.9527 4.05296 17.6269C4.38679 17.9607 4.7831 18.2255 5.21926 18.4062C5.65543 18.5869 6.12291 18.6798 6.59501 18.6798H12.5C13.4535 18.6798 14.3679 18.3011 15.0421 17.6269C15.7163 16.9527 16.095 16.0383 16.095 15.0848V8.92385C16.0965 8.45087 16.0045 7.98225 15.8245 7.54487C15.6445 7.10749 15.3799 6.70995 15.0459 6.37504C14.7119 6.04013 14.3151 5.77443 13.8782 5.59319C13.4413 5.41194 12.973 5.31871 12.5 5.31885M22 9.43785V14.5728C22 14.8228 21.929 15.0688 21.795 15.2808C21.6593 15.4935 21.4671 15.6642 21.24 15.7738C21.0144 15.8868 20.7603 15.9299 20.51 15.8978C20.2633 15.8683 20.0293 15.7722 19.833 15.6198L16.608 13.0318C16.4531 12.9044 16.3279 12.7447 16.241 12.5638C16.1541 12.383 16.1077 12.1854 16.105 11.9848C16.105 11.7848 16.15 11.5878 16.238 11.4098C16.33 11.2418 16.456 11.0948 16.608 10.9778L19.833 8.41085C20.0293 8.25789 20.2638 8.16174 20.511 8.13285C20.761 8.10085 21.015 8.14385 21.24 8.25585C21.4637 8.36319 21.6532 8.53054 21.7874 8.73923C21.9216 8.94793 21.9952 9.18978 22 9.43785Z" stroke="currentColor" stroke-width="1.5" stroke-linecap="round" stroke-linejoin="round"/>
</svg>
